<?xml version="1.0" encoding="utf-8" ?>
<svg xmlns="http://www.w3.org/2000/svg" xmlns:xlink="http://www.w3.org/1999/xlink" width="512" height="512">
	<path fill="#264653" d="M212.904 2.10904C218.418 2.35414 224.23 1.95154 229.782 1.94891L304.889 1.99646L343.745 4.63182C354.133 5.30323 364.463 4.19776 374.745 6.53856C383.574 8.54844 386.717 11.5101 391.314 18.9385L399.977 33.5676C404.451 40.6735 410.465 46.2544 417.466 50.8022C422.731 54.2217 429.064 57.1945 432.447 62.7203C442.526 79.1845 431.826 97.601 424.714 112.853L413.502 136.79L365.108 224.605L314.012 301.75L300.493 323.436L309.25 326.979C335.19 338.35 347.258 365.587 352.022 391.758C359.434 432.481 351.792 455.836 321.534 483.125C311.46 492.21 302.498 498.304 289.779 503.098C282.376 505.168 275.266 507.7 267.561 508.599C242.622 511.51 219.956 501.409 200.408 486.667C171.304 464.717 156.805 437.293 159.666 399.934C161.645 374.103 172.005 352.723 193.894 338.382L204.852 331.757C206.848 330.623 214.973 326.525 215.75 324.385C215.885 324.013 213.112 320.104 212.721 319.55L193.989 294.482L168.29 255.875L125.321 184.699L83.7935 104.348C75.5117 87.0384 67.1077 71.8251 85.3916 56.4261C92.0795 50.7935 99.8451 46.2119 106.022 40.0251C113.598 32.4367 119.593 23.1273 127.825 16.207C139.685 6.23555 154.484 4.51185 169.416 3.54249L192.795 2.54896C199.488 2.46872 206.229 2.68651 212.904 2.10904ZM230.834 327.456C230.332 327.875 230.125 328.086 229.499 328.239L226.077 329.408C224.677 329.967 222.129 330.048 221.445 331.546L220.652 335.096C219.582 333.852 218.652 333.11 217.084 332.581C215.701 333.214 214.282 333.58 212.925 334.306C212.873 333.96 212.777 333.638 212.684 333.301C201.12 340.353 185.238 351.228 177.725 362.9C171.195 373.044 165.392 391.308 165.518 403.744C165.585 410.306 166.862 416.791 168.192 423.195C173.125 446.947 177.951 464.787 197.912 479.705C249.449 518.221 313.031 498.318 340.216 443.024C346.993 430.218 348.211 416.792 346.532 402.527C345.386 394.673 343.65 387.08 341.184 379.535C334.971 361.323 323.265 342.931 305.881 333.533C302.154 331.519 298.113 330.186 294.141 328.749L281.09 324.501C267.164 320.522 267.311 323.25 254.622 324.188C246.516 324.787 238.697 325.135 230.834 327.456ZM234.067 68.9778C210.232 68.7476 186.318 72.4045 163.629 79.6582L168.509 92C175.651 108.428 183.562 124.724 192.577 140.215L233.721 205.917L254.652 243.488C255.479 245.061 256.289 247.427 257.434 248.714L265.132 235.142L349.324 84.8256C332.115 75.3304 313.617 73.5452 294.464 71.6831L271.625 69.7528C269.822 69.6027 268.047 69.2373 266.237 69.152L234.067 68.9778ZM137.266 25.0186L137.479 25.4627C142.923 26.8733 154.277 55.2187 156.643 61.4435L160.615 71.8886C161.271 73.6821 161.76 75.5694 162.738 77.2209C174.036 70.7282 195.308 68.1102 208.274 66.7116C238.329 63.4698 268.389 63.985 298.443 67.0439C316.687 68.9007 328.814 70.4825 346.022 78.076C347.801 78.861 349.667 79.495 351.325 80.521L351.561 80.6716C352.362 79.7365 352.89 78.2487 353.436 77.1409L377.864 25.2816L371.794 21.375C365.301 17.9707 358.324 15.9821 351.208 14.375L329.088 10.3393C317.117 8.6019 304.83 6.93872 292.75 6.29802L248.689 6.2595L193.704 12.3975C172.153 15.5894 157.956 18.5942 137.266 25.0186ZM104.071 56.625C98.6843 61.5806 92.1507 67.1309 90.2329 74.5L90.0958 74.9453C88.4001 80.9417 99.6761 98.6315 102.763 104.066L134.361 164.389L183.916 248.466L209.796 288.634C214.296 295.563 219.474 302.549 222.953 310.051C223.14 310.544 223.543 312.005 223.933 312.248L235.02 292.043L175.267 195.866L164.478 179.735C152.363 161.658 140.252 143.145 132.19 122.827L120.037 91.2131C115.651 81.2584 107.646 70.2655 104.866 59.975C104.574 58.8936 104.619 57.7691 104.361 56.6828L104.071 56.625ZM217.725 330.278C219.16 332.378 217.99 331.488 217.084 332.581C218.652 333.11 219.582 333.852 220.652 335.096L221.445 331.546C222.129 330.048 224.677 329.967 226.077 329.408L229.499 328.239C230.125 328.086 230.332 327.875 230.834 327.456C226.473 328.381 221.725 328.26 217.725 330.278ZM212.684 333.301C212.777 333.638 212.873 333.96 212.925 334.306C214.282 333.58 215.701 333.214 217.084 332.581C217.99 331.488 219.16 332.378 217.725 330.278C215.977 331.147 214.231 332.104 212.684 333.301Z"/>
	<path fill="#5CCBB5" d="M129.028 29.1539L129.512 30.0141C130.068 30.1364 130.43 30.1121 130.989 30.0122L130.323 30.9141L130.017 31.1244C128.69 32.0554 127.9 33.6211 126.046 33.4161C126.94 31.8911 127.922 30.5319 129.028 29.1539Z"/>
	<path fill="#7ED6BB" d="M129.028 29.1539L129.93 28.2353C131.886 26.329 134.51 24.9596 137.266 25.0186L137.479 25.4627C135.375 25.5176 133.248 27.6105 131.854 29.0746L130.989 30.0122C130.43 30.1121 130.068 30.1364 129.512 30.0141L129.028 29.1539Z"/>
	<path fill="#2A9D8F" d="M130.323 30.9141C130.02 35.2359 130.952 39.0683 132.063 43.2081L136.331 57.2617C140.709 71.2545 146.353 84.6267 152.168 98.0651L160.155 116.746L175.335 145.97L216.32 211.353L245.457 261.969C245.761 262.541 248.009 266.4 247.96 266.837C247.697 269.142 240.934 279.748 239.495 281.805L239.307 281.9C230.923 271.463 225.208 258.398 219.035 246.578L203.744 219.375C195.389 205.136 185.715 191.885 176.48 178.239L150.673 137.288C141.449 121.725 137.526 106.698 130.112 90.6666C124.099 77.6643 116.111 65.4961 110.771 52.208C114.811 47.2815 119.411 42.9605 123.138 37.751C123.485 37.2663 125.759 33.4925 126.046 33.4161C127.9 33.6211 128.69 32.0554 130.017 31.1244L130.323 30.9141Z"/>
	<path fill="#2A9D8F" d="M295.426 260.72L286.141 275.345C281.814 282.233 268.056 305.582 262.668 310.182C259.556 312.838 247.54 313.541 243.642 313.225C245.681 303.037 251.656 293.437 256.757 284.5L310.507 190.298L329.852 158.004L348.704 123.274L370.132 78.2431C377.208 62.1179 381.488 50.8297 386.45 34.1569C392.537 46.4879 395.501 49.2559 405.683 57.4636C402.672 60.4316 401.264 65.9707 399.486 69.75L384.291 99.6143L355.305 149.757L308.562 236.584C305.925 241.928 303.184 247.135 300.956 252.671C298.808 263.524 303.803 262.76 307.098 254.087L311.19 241.69C313.045 236.453 315.566 231.688 318.162 226.794L348.979 170.314L385.428 106.954C391.748 95.5705 397.914 83.695 403.128 71.7647C404.288 69.1106 406.722 59.8176 407.56 58.7902C411.286 61.7562 421.357 70.0593 421.874 74.8567C423.503 89.981 386.673 148.305 378.168 163.702L350.125 214.377L308.809 286.046L297.622 302.219C295.607 305.132 291.633 312.96 288.893 314.583L272.671 312.74C282.555 300.292 290.198 283.994 294.053 268.5C294.601 266.298 295.643 262.934 295.426 260.72Z"/>
	<path fill="#88752B" d="M322.873 371.625C323.561 371.513 323.583 371.479 324.185 371.816C326.476 375.373 322.401 380.433 320.287 383.102L319.489 383.5C318.548 379.994 319.775 373.715 322.873 371.625Z"/>
	<path fill="#BEB314" d="M189.128 438.01C190.503 439.798 194.318 443.375 193.953 445.692C193.627 447.755 189.543 447.326 188.125 446.515L187.769 446.316C185.119 444.765 183.338 441.986 182.093 439.259C182.769 439.383 183.409 439.537 184.055 439.774L184.489 439.936C186.499 439.595 187.495 439.29 189.128 438.01Z"/>
	<path fill="#F3DB25" d="M191.682 359.765C198.351 359.378 201.346 364.778 194.369 367.416C187.57 368.584 184.615 362.168 191.682 359.765Z"/>
	<path fill="#F3DB25" d="M217.084 332.581C218.652 333.11 219.582 333.852 220.652 335.096L220.729 335.712C221.558 345.414 204.454 341.802 212.925 334.306C214.282 333.58 215.701 333.214 217.084 332.581Z"/>
	<defs>
		<linearGradient id="gradient_0" gradientUnits="userSpaceOnUse" x1="310.97583" y1="345.03223" x2="312.43201" y2="353.27695">
			<stop offset="0" stop-color="#6D7530"/>
			<stop offset="1" stop-color="#495844"/>
		</linearGradient>
	</defs>
	<path fill="url(#gradient_0)" d="M300.388 347.824L301.069 346.625L302.538 347.372C306.059 351.067 313.498 351.984 317.667 348.775C318.945 348.091 320.32 347.704 321.714 347.337C326.058 351.773 306.875 359.17 300.388 347.824Z"/>
	<path fill="#819325" d="M300.388 347.824L299.875 346.196C298.296 339.78 310.998 339.689 314.467 341.535C317.184 342.981 318.929 345.506 321.418 347.148L321.714 347.337C320.32 347.704 318.945 348.091 317.667 348.775C313.064 344.95 306.269 338.55 302.538 347.372L301.069 346.625L300.388 347.824Z"/>
	<path fill="#BEB314" d="M302.538 347.372C306.269 338.55 313.064 344.95 317.667 348.775C313.498 351.984 306.059 351.067 302.538 347.372Z"/>
	<path fill="#FAAF00" d="M179.473 396.284L181.25 396.508C188.706 397.91 185.465 403.63 180.684 405.874C173.529 407.801 171.625 397.943 179.473 396.284Z"/>
	<path fill="#264653" d="M182.093 439.259C181.313 437.495 180.953 435.119 181.407 433.219L181.494 432.875C184.235 421.623 196.976 421.563 192.579 426.753C190.204 429.557 188.749 431.855 187.384 435.296L189.128 438.01C187.495 439.29 186.499 439.595 184.489 439.936L184.055 439.774C183.409 439.537 182.769 439.383 182.093 439.259Z"/>
	<path fill="#264653" d="M329.152 425.344C330.833 425.682 332.532 426.166 334.085 426.903L334.367 427.034C338.494 429.05 338.429 434.455 337.306 438.25L337.177 438.713C336.815 439.98 336.296 440.902 335.618 442.019L334.875 442.493C330.126 442.72 326.603 435.89 324.464 432.478C320.347 425.913 321.665 425.702 329.152 425.344Z"/>
	<path fill="#C67978" d="M328.429 427.625C332.028 425.826 334.555 429.521 333.375 433.775L332.875 434.215C331.474 432.875 327.821 429.766 328.429 427.625Z"/>
	<defs>
		<linearGradient id="gradient_1" gradientUnits="userSpaceOnUse" x1="337.94156" y1="407.40424" x2="324.35233" y2="392.62698">
			<stop offset="0" stop-color="#647041"/>
			<stop offset="1" stop-color="#333C4A"/>
		</linearGradient>
	</defs>
	<path fill="url(#gradient_1)" d="M333.463 386.293C334.51 387.39 334.439 390.34 334.913 391.879C336.139 395.861 338.708 396.929 338.784 402.483C338.643 403.207 338.582 404.254 338.296 404.913C337.971 406.41 337.566 407.669 336.839 409.016C336.639 408.759 336.75 408.883 336.441 408.601L336.19 408.375C336.053 407.196 335.848 406.628 335.043 405.748L335.435 402.845C335.502 401.746 335.372 400.618 335.3 399.521C328.839 400.021 323.71 402.647 317.036 401.334L317.418 400.47C318.919 397.048 322.738 394.323 325.633 392.087L333.463 386.293Z"/>
	<defs>
		<linearGradient id="gradient_2" gradientUnits="userSpaceOnUse" x1="263.48648" y1="336.31952" x2="260.61041" y2="325.99786">
			<stop offset="0" stop-color="#A89816"/>
			<stop offset="1" stop-color="#5E6F2A"/>
		</linearGradient>
	</defs>
	<path fill="url(#gradient_2)" d="M261.722 325.291L264.278 325.198C268.899 325.295 272.483 327.263 275.617 330.553C272.02 333.856 267.136 335.351 262.687 337.125C255.664 339.242 245.447 342.574 255.085 331.241C256.939 329.061 258.991 326.368 261.722 325.291Z"/>
	<path fill="#264653" d="M216.284 468.672C217.683 467.647 219.235 466.472 220.905 465.936C222.519 465.418 228.213 465.559 228.751 467.75C226.796 470.557 212.425 479.218 208.272 477.807L207.678 477.594C197.351 473.742 213.07 447.983 216.48 460.875C216.286 462.557 214.354 463.695 213.133 464.712C213.525 466.596 214.305 468.129 216.284 468.672ZM216.284 468.672C214.305 468.129 213.525 466.596 213.133 464.712C211.092 466.791 209.246 469.954 209.125 472.891L209.5 473.196C212.104 472.508 214.4 470.544 216.284 468.672Z"/>
	<path fill="#264653" d="M245.876 475.363C268.691 473.91 263.252 489.785 249.311 492.166C248.552 492.514 245.134 492.244 244.32 492.081C227.772 488.771 232.258 476.673 245.876 475.363Z"/>
	<path fill="#F3DB25" d="M254.745 481.395C256.316 482.186 256.915 483.556 255.537 485.031L253.821 486.465C253.953 484.579 255.053 483.277 254.745 481.395Z"/>
	<path fill="#F3DB25" d="M241.99 486.379L243.713 486.798C246.502 487.438 249.69 486.876 252.552 487.059C249.432 489.145 244.838 488.628 241.99 486.379Z"/>
	<path fill="#FFF4AB" d="M241.99 486.379C241.452 485.989 241.024 485.379 240.588 484.875C244.01 480.427 249.788 481.002 254.745 481.375C255.053 483.277 253.953 484.579 253.821 486.465C253.47 486.678 252.947 487.104 252.552 487.166C249.69 486.876 246.502 487.438 243.713 486.798L241.99 486.379Z"/>
	<path fill="#264653" d="M305.855 454.791L306.082 453.75C306.856 451.006 303.602 444.192 302.074 441.989C301.438 441.073 300.146 440.161 299.894 439.125C302.482 435.749 312.183 433.538 314.396 441.282C314.529 443.417 314.919 445 315.684 447.007L316.503 447.998C324.002 451.649 321.442 462.197 313.595 464.708C311.534 465.367 309.41 465.3 307.277 465.31L300.143 465.3L299.482 464.267C299.922 460.329 305.012 457.778 305.855 454.791Z"/>
	<path fill="#F3DB25" d="M314.396 441.282C314.529 443.417 314.919 445 315.684 447.007C314.165 447.534 311.674 447.53 310.08 447.311L312.375 445.689C313.706 444.53 314.284 443.006 314.396 441.282Z"/>
	<path fill="#FFF4AB" d="M315.684 447.007L316.503 447.998L316.255 448.296C314.459 450.625 316.372 455.432 313.443 457.515C312.16 458.428 307.472 458.186 306.445 457.355L306.233 457.125C306.322 456.377 306.372 455.656 306.67 454.955L306.89 453.75C307.756 450.847 306.926 449.106 310.08 447.311C311.674 447.53 314.165 447.534 315.684 447.007Z"/>
	<path fill="#F3DB25" d="M332.939 415.805C334.624 415.605 335.062 413.908 336.626 413.195C334.873 418.205 335.21 419.135 331.623 422.723L332.939 415.805Z"/>
	<path fill="#BEB314" d="M338.784 402.483L338.954 404.199C338.619 407.391 337.681 410.185 336.626 413.195C335.062 413.908 334.624 415.605 332.939 415.805L334.192 409.551L335.043 405.748C335.848 406.628 336.053 407.196 336.19 408.375L336.441 408.601C336.75 408.883 336.639 408.759 336.839 409.016C337.566 407.669 337.971 406.41 338.296 404.913C338.582 404.254 338.643 403.207 338.784 402.483Z"/>
	<path fill="#819325" d="M335.043 405.748C335.848 406.628 336.053 407.196 336.19 408.375L336.441 408.601C336.75 408.883 336.639 408.759 336.839 409.016C336.438 409.664 336.172 410.359 335.5 410.736L335.157 410.374C334.853 410.056 334.557 409.8 334.192 409.551L335.043 405.748Z"/>
	<defs>
		<linearGradient id="gradient_3" gradientUnits="userSpaceOnUse" x1="288.29492" y1="485.21286" x2="280.37357" y2="468.27686">
			<stop offset="0" stop-color="#456830"/>
			<stop offset="1" stop-color="#383F43"/>
		</linearGradient>
	</defs>
	<path fill="url(#gradient_3)" d="M299.482 464.267L300.143 465.234L292.515 467.776C309.83 479.999 285.09 490.248 276.25 486.746C263.063 481.522 276.23 467.391 285.016 466.194C291.159 465.358 293.012 466.194 299.482 464.267Z"/>
	<path fill="#F3DB25" d="M285.499 472.281C287.226 472.09 289.362 472.081 291.023 472.622L292.424 473.118C300.328 476.607 289.2 481.932 285.286 483.011C269.752 485.911 275.975 474.918 285.499 472.281Z"/>
	<path fill="#264653" d="M256.547 350.777C264.468 351.177 267.36 353.36 267.385 360.556C267.409 367.415 266.917 374.012 269.087 380.618C272.381 382.879 277.946 383.217 281.894 383.787L316.07 388.902C308.007 396.596 294.235 396.894 283.798 405.988L279.102 410.831C279.527 418.685 287.238 434.151 292.875 439.028C293.228 440.865 290.408 441.839 289.008 442.274C280.613 444.887 274.075 440.646 266.87 437.04L260.283 434.375C254.144 432.284 247.572 434.333 242.148 437.417C234.535 441.746 221.482 448.903 224.912 432.11L230.78 411.349C226.744 404.297 210.057 396.562 202.765 396.399L204 395.496C205.824 394.175 207.094 392.493 208.696 390.944C213.23 386.56 218.997 385.379 225 384.248L232.601 382.65C239.308 381.243 241.211 380.906 244.326 374.79L248.569 365.516C250.527 360.635 251.538 353.473 256.547 350.777ZM256.106 377.375C248.819 386.365 245.615 389.017 234.49 392.218L229.842 393.553C229.07 393.757 228.008 393.879 227.317 394.263C233.026 397.516 239.962 401.909 243.546 407.5L243.82 407.923C247.225 413.307 241.135 424.535 238.978 429.649C242.756 424.862 245.069 418.638 250.911 415.843L251.25 415.749C256.011 414.448 260.334 416.077 264.445 418.435L274.982 425.912C266.882 408.938 264.111 403.925 282.145 394.612L277.986 394.125C258.391 390.35 258.455 378.635 256.106 377.375Z"/>
</svg>
