<?xml version="1.0" encoding="utf-8" ?>
<svg xmlns="http://www.w3.org/2000/svg" xmlns:xlink="http://www.w3.org/1999/xlink" width="512" height="512">
	<path fill="#1003F5" d="M275.838 9.86136C279.256 9.89453 283.441 9.75703 286.747 10.6422L287.125 10.7464C297.534 13.5386 297.115 24.6196 283.062 25.4893L271.375 25.3483C262.572 24.4427 261.135 12.7021 270.353 10.531L270.75 10.4413C272.421 10.0524 274.131 9.98386 275.838 9.86136Z"/>
	<path fill="#1003F5" d="M458.914 129.273C462.118 129.094 466.064 129.816 467.12 133.459L467.192 133.729C467.926 136.335 467.724 139.314 467.733 142.007L467.748 162.07C467.744 164.119 467.868 166.339 467.368 168.338L467.294 168.625C466.636 171.538 464.822 173.145 462.088 174.311C456.597 175.689 453.281 171.504 453.263 166.35L453.264 143.727C453.279 137.283 451.711 131.827 458.914 129.273Z"/>
	<path fill="#B300F9" d="M63.425 245.517C69.8193 245.182 71.0701 253.685 72.5074 258.398L81.22 283.25C83.9596 289.639 89.8157 299.246 79.3325 302.305C70.4609 302.206 67.3114 290.321 64.7028 283.603C62.2071 277.175 54.6226 255.745 57.3692 249.984C58.502 247.607 61.0464 246.298 63.425 245.517Z"/>
	<path fill="#B300F9" d="M50.0477 128.54C56.6707 127.922 58.6803 133.251 58.6859 139.073L58.6809 178.15C58.7279 181.842 59.1817 185.433 59.473 189.1L63.0506 218.258C64.1679 224.196 66.8876 233.701 58.6045 235.464C48.7298 236.005 48.7929 226.69 47.4983 219.29C45.7459 209.275 44.5268 198.764 44.1244 188.593L44.0351 141.439C44.0446 135.565 43.7831 131.044 50.0477 128.54Z"/>
	<path fill="#1003F5" d="M321.523 10.6283C326.648 10.6371 340.161 9.79209 344.746 11.7C347.533 12.8597 348.635 17.9375 349.615 20.5822C358.067 43.4093 372.317 60.5501 392.702 73.7703L407.597 82.7728C408.821 83.5756 410.156 84.3662 410.768 85.75C410.883 91.2987 406.404 96.9515 400.687 94.6219C373.951 84.1303 349.08 56.8218 338.031 31.039C337.277 29.2806 336.903 27.0589 335.938 25.465L323.332 25.4862C321.362 25.4908 318.96 25.7549 317.044 25.3439L316.75 25.2753C309.514 23.6825 304.562 11.0674 321.523 10.6283Z"/>
	<defs>
		<linearGradient id="gradient_0" gradientUnits="userSpaceOnUse" x1="147.03581" y1="-11.682193" x2="86.061577" y2="247.80453">
			<stop offset="0" stop-color="#0801FD"/>
			<stop offset="1" stop-color="#D100FA"/>
		</linearGradient>
	</defs>
	<path fill="url(#gradient_0)" d="M42.551 91.0513C52.4659 91.0598 62.6689 91.5716 72.5362 90.7362C108.514 87.6903 142.662 62.9175 158.005 30.2575L161.147 22.6714C164.077 14.7288 163.233 10.6897 172.563 10.3616L228.859 10.2591C233.665 10.2682 239.918 9.11639 244.317 11.4178L244.63 11.5779C246.41 12.5267 247.657 14.5088 248.182 16.4204L248.423 17.3255C250.388 24.4764 239.1 25.4623 234.672 25.4654L175.939 25.3932C174.71 27.3585 173.962 30.0762 172.951 32.2354C149.564 82.1848 107.842 107.063 52.0803 105.649L37.1962 105.679C25.0781 105.733 27.9743 103.932 28.013 117.015L28.1355 165.742L32.8012 215.597C33.3801 219.778 34.3218 224.12 34.1225 228.368C33.7734 235.809 22.8516 235.576 20.375 229.782C18.9817 226.523 18.5112 222.591 17.904 219.107C14.2168 197.952 13.0532 176.627 13.0416 155.191L13.0418 106.57C13.0305 93.3205 11.8699 91.0811 27.5029 91.0561L42.551 91.0513Z"/>
	<defs>
		<linearGradient id="gradient_1" gradientUnits="userSpaceOnUse" x1="452.1297" y1="174.03036" x2="155.23833" y2="420.21634">
			<stop offset="0" stop-color="#0003FE"/>
			<stop offset="1" stop-color="#FF00FE"/>
		</linearGradient>
	</defs>
	<path fill="url(#gradient_1)" d="M373.715 374.818C384.883 362.184 395.082 348.84 404.056 334.551L427.093 291.675C433.799 276.775 439.084 261.322 443.198 245.517L448.573 220.389L452.184 196.146C452.866 191.715 454.461 186.927 459.909 186.712C468.603 186.368 466.473 199.346 465.865 204.178L463.324 221.25C458.782 246.965 451.421 272.225 440.95 296.17L429.706 318.823L410.571 351.565C406.294 358.14 397.331 371.456 391.51 376.814L391.443 376.842C384.253 386.954 370.17 400.266 361.025 408.306C358.792 410.269 356.503 412.564 354.023 414.193L354.026 414.223C352.038 416.161 349.671 417.854 347.476 419.56L338.207 426.615C320.898 439.084 302.258 450.132 283.067 459.443L268.877 465.831C264.307 467.886 259.763 470.242 255.045 471.912L209.964 450.342C201.794 445.932 194.013 440.923 186.215 435.897L165.662 421.964C153.779 413.128 142.492 403.015 132.416 392.16L117.195 374.045C110.89 366.169 83.5719 329.657 86.2508 320.336C86.8522 318.243 92.2562 312.678 94.7533 314.766C96.9529 316.605 98.6905 320.15 100.195 322.535L128.347 363.375C148.896 389.689 174.937 411.106 203.462 428.272L220.5 437.747C231.689 443.95 242.794 450.353 255.029 454.311C270.931 449.494 299.796 434.052 313.828 425.217C322.038 420.047 329.667 414.122 337.458 408.361L352.484 396.175C359.972 389.58 366.97 382.175 373.715 374.818Z"/>
	<defs>
		<linearGradient id="gradient_2" gradientUnits="userSpaceOnUse" x1="509.32446" y1="108.82741" x2="109.38236" y2="410.84274">
			<stop offset="0" stop-color="#0008F6"/>
			<stop offset="1" stop-color="#FF00FE"/>
		</linearGradient>
	</defs>
	<path fill="url(#gradient_2)" d="M404.148 383.279L427.393 350.143C444.476 322.609 457.723 293.899 467.529 263L474.598 238.531C479.356 218.886 483.161 195.038 484.31 174.717L484.444 127.259C484.446 120.091 484.264 112.891 484.749 105.736L446.25 105.395C442.656 105.236 439.022 105.416 435.5 104.586L435.127 104.5C428.244 102.837 427.649 91.2003 434.979 90.935L491.373 91.0262C496.802 91.0724 499.151 93.4076 499.179 98.5878L499.071 167.769L494.339 213.75C489.963 241.036 482.334 267.661 472.343 293.407L465.249 311.056C457.678 327.876 446.099 347.854 436.235 363.145L420.116 386.418C419.769 386.912 419.078 388.135 418.611 388.472C415.689 392.674 412.18 396.422 408.868 400.314L390.628 420.295C388.698 422.196 386.754 424.419 384.575 426.02C383.327 427.428 381.777 428.632 380.36 429.869L350.566 453.821C327.409 471.039 303.052 483.431 276.828 495.468L266.999 499.938C263.673 501.466 257.746 504.842 253.942 503.843L253.625 503.755C245.147 501.476 236.997 496.642 229.036 492.931C201.029 479.874 174.241 464.818 149.765 445.837L127.93 427.144C85.0269 388.027 53.8215 335.557 34.3048 281.27L29.0295 264.901C27.6481 259.943 26.3126 254.837 26.5209 249.656C28.3816 246.067 32.403 244.454 36.2144 245.878C40.6327 247.529 41.9085 254.807 43.0532 258.75L47.1339 272.111C54.5564 294.299 64.6977 316.614 76.3128 336.945L90.7579 359.984C121.064 405.739 161.42 440.206 209.775 466.288L246.965 484.045C249.889 485.344 252.717 486.843 255.722 487.956C260.454 486.25 265.043 483.864 269.695 481.917C307.063 466.282 339.252 446.01 369.719 419.607L404.148 383.279Z"/>
	<defs>
		<linearGradient id="gradient_3" gradientUnits="userSpaceOnUse" x1="343.18091" y1="126.6798" x2="168.47279" y2="342.02032">
			<stop offset="0" stop-color="#0001FF"/>
			<stop offset="1" stop-color="#9E00FD"/>
		</linearGradient>
	</defs>
	<path fill="url(#gradient_3)" d="M129.61 174.836C132.251 168.93 136.08 163.338 139.721 158C175.978 104.846 247.927 79.0953 308.11 106.166C319.781 111.417 331.247 117.536 341.444 125.315C373.726 149.941 397.117 190.338 397.975 231.502C398.028 234.058 398.172 236.719 397.778 239.25L397.727 239.593C396.658 246.336 383.613 253.099 383.484 235.119L383.129 228.127C382.899 225.77 380.307 208.955 379.24 207.941C378.504 207.242 377.064 206.562 376.173 206.034L368.775 201.756C367.74 201.149 366.375 199.995 365.284 199.645C362.077 212.866 357.165 225.399 351.338 237.68L351.554 237.92C355.878 242.82 359.812 263.538 360.942 270.029C361.459 272.998 362.278 285.173 364.75 286.731C376.101 285.875 376.517 256.385 387.117 255.513C390.46 255.238 393.213 258.312 393.835 261.375L393.895 261.656C395.185 268.689 384.015 290.942 380.793 297.074C373.817 310.352 365.029 322.042 354.291 332.564C353.819 333.026 352.765 334.327 352.205 334.558L347.727 338.695C316.189 366.496 267.167 378.454 226.028 369.329C195.499 362.558 166.561 344.561 146.08 321.026C137.699 311.394 126.307 290.222 121.994 278.047C120.478 273.77 114.821 254.212 115.284 249.91C115.883 244.337 122.746 241.635 126.891 245.284C133.596 251.184 132.955 283.297 146.592 285.753L147.875 285.987C150.503 284.106 150.929 275.055 151.426 272.113L154.999 254.125C156.318 248.505 157.847 242.626 160.752 237.598C156.358 227.336 152.654 219.349 149.028 208.295L146.449 199.555C145.088 200.441 143.624 201.572 142.129 202.196L141.752 202.346C139.21 204.436 135.753 205.392 133.233 207.676C129.646 210.928 130.959 222.188 128.761 227.164C125.715 234.057 116.698 235.085 114.766 227.533C114.055 224.752 115.119 220.737 115.618 217.944C118.221 203.384 122.381 187.897 129.61 174.836ZM295.294 115.583L305.038 129.091C308.403 134.078 310.975 138.63 313.367 144.116C316.427 143.458 318.849 143.025 321.652 144.875C333.74 152.851 316.931 164.97 307.438 157.19L283.486 189.768L304.595 227.066C307.77 232.493 307.795 231.12 315.015 231.125L325.143 231.135C329.144 231.137 333.332 231.392 337.312 231.275L338.212 231.125C342.642 221.901 347.119 213.051 350.257 203.25L352.845 194.009C357.62 173.568 362.581 181.353 374.518 190.097C369.291 181.936 365.165 173.091 359.695 165.089C344.084 142.254 319.831 127.259 295.294 115.583ZM158.994 190.875C160.924 198.668 168.578 225.048 173.699 231.395C175.059 232.091 177.716 231.759 179.259 231.749L205.041 230.545L205.844 230.377C209.121 222.829 213.422 215.942 217.531 208.825L228.351 189.532L205.139 157.191C196.184 161.714 187.895 161.353 185.606 150.615C187.189 144.87 193.39 142.693 198.942 143.411L199.298 143.46C203.542 133.824 209.872 125.495 216.371 117.271C190.291 125.489 162.847 147.275 149.441 170.669C147.943 173.284 146.654 176.084 144.875 178.524C143.704 180.131 139.208 183.788 139.266 185.706C143.626 186.647 153.498 167.6 158.994 190.875ZM241.267 196.327L219.177 236.664C221.35 240.034 223.02 243.752 224.897 247.295L236.738 268.781C238.753 272.372 240.605 276.243 242.977 279.604L267.234 279.4C268.33 279.394 268.813 279.603 269.718 278.985L269.736 278.365L293.192 236.838C290.457 232.1 271.963 196.762 269.674 196.349L241.267 196.327ZM257.409 110.713L237.987 111.87C235.406 114.587 233.21 117.696 231.017 120.728L214.882 144.739C215.433 145.87 216.392 146.939 217.138 147.967L235.972 175.848C236.983 177.31 239.014 181.07 240.436 181.779L255.576 181.908L265.647 181.882C272.976 181.859 270.757 182.396 274.937 176.942L289.936 155.698C292.499 151.965 294.86 147.93 297.936 144.593L275.586 114.083C274.73 112.973 274.184 111.696 272.712 111.459C267.603 110.637 262.562 110.678 257.409 110.713ZM247.181 294.112L243.355 294.257L222.602 318.894C219.794 322.145 217.068 325.401 213.95 328.364C216.601 332.182 219.156 335.995 221.377 340.086L225.373 347.748C227.119 351.251 228.005 354.207 232.25 355C242.815 356.974 253.466 356.231 264.125 356.412C269.879 356.303 276.528 356.314 282.178 355.008L297.069 327.517L271.978 297.326C271.052 296.217 270.358 294.807 269.121 294.067L247.181 294.112ZM305.054 245.429L282.12 286.927C286.248 291.124 289.501 296.439 293.243 301.01L301.702 310.985C304.486 314.174 307.151 317.148 309.393 320.765L320.932 315.137L334.982 308.458C339.653 306.162 345.765 303.803 347.648 298.463L348.138 296.958C351.295 287.929 345.031 262.895 342.304 254.069C341.55 251.63 341.085 248.226 339.421 246.239C334.4 245.652 329.363 245.767 324.317 245.749L305.054 245.429ZM194.123 245.743L172.023 245.872C171.337 247.403 171.257 249.13 170.813 250.745C168.377 259.597 161.351 292.642 166.375 300.572L166.568 300.883C169.967 306.115 186.954 313.328 192.502 315.318L201.618 318.159L203.928 319.167L230.638 286.74C227.615 282.118 224.963 277.289 222.289 272.46L209.427 249.642C208.596 248.316 208.001 246.531 206.721 245.659L194.123 245.743ZM167.275 318.663C176.02 334.307 194.614 340.16 209.588 348.094C201.855 335.183 205.012 336.7 191.348 330.729C183.142 327.143 174.877 323.426 167.275 318.663ZM335.26 324.601L335.059 324.741C333.402 325.867 331.515 326.713 329.733 327.627L312.985 335.144C310.599 336 310.781 336.49 309.411 338.579L303.437 347.752C318.239 342.16 327.519 335.334 340.266 326.351C340.342 326.183 341.103 325.653 341.29 325.498C348.452 319.54 337.583 323.76 335.731 324.433L335.26 324.601ZM146.617 300.625C145.215 302.841 150.42 306.107 152.226 306.375C152.77 304.159 148.716 300.054 146.617 300.625ZM361.983 301.625C359.925 302.974 357.554 304.694 359.375 307.036L359.875 307.041C360.427 306.45 363.772 301.826 361.983 301.625Z"/>
</svg>
