<svg xmlns="http://www.w3.org/2000/svg" viewBox="8 0 16 16" fill="#FFFFFF" width="40" height="40">
  <path d="M22.46 5.54c-.8.35-1.64.59-2.52.7.91-.54 1.6-1.4 1.93-2.42-.85.5-1.78.86-2.77 1.06-.8-.85-1.94-1.38-3.2-1.38-2.42 0-4.38 1.96-4.38 4.38 0 .34.04.68.12 1-.9-.05-1.74-.28-2.48-.68v.07c0 1.34.95 2.45 2.22 2.7-.23.06-.47.09-.72.09-.18 0-.36-.02-.53-.05.36 1.1 1.4 1.9 2.63 1.92-1.05.8-2.37 1.27-3.8 1.27-.25 0-.5-.02-.74-.05 1.35.86 2.95 1.36 4.67 1.36 5.6 0 8.66-4.64 8.66-8.66 0-.13 0-.26-.01-.39.6-.43 1.12-.97 1.53-1.58z"/>
</svg>